<svg width="26" height="18" viewBox="0 0 26 18" fill="none" xmlns="http://www.w3.org/2000/svg">
<path d="M25.397 0.554H23.355L13.381 13.198C13.28 13.322 13.125 13.395 12.965 13.395C12.801 13.395 12.65 13.322 12.546 13.198L2.57501 0.554H0.532014C0.326014 0.554 0.140014 0.669 0.0530143 0.853C-0.0369857 1.037 -0.0109857 1.256 0.113014 1.414L12.548 17.176C12.652 17.301 12.803 17.376 12.967 17.376C13.127 17.376 13.282 17.301 13.383 17.176L25.816 1.413C25.944 1.256 25.964 1.036 25.874 0.852C25.789 0.669 25.601 0.554 25.397 0.554Z" fill="white"/>
</svg>
